<mxfile host="Electron" agent="Mozilla/5.0 (Windows NT 10.0; Win64; x64) AppleWebKit/537.36 (KHTML, like Gecko) draw.io/24.7.17 Chrome/128.0.6613.36 Electron/32.0.1 Safari/537.36" version="24.7.17">
  <diagram id="C5RBs43oDa-KdzZeNtuy" name="Page-1">
    <mxGraphModel dx="1040" dy="606" grid="1" gridSize="10" guides="1" tooltips="1" connect="1" arrows="1" fold="1" page="1" pageScale="1" pageWidth="827" pageHeight="1169" math="0" shadow="0">
      <root>
        <mxCell id="WIyWlLk6GJQsqaUBKTNV-0" />
        <mxCell id="WIyWlLk6GJQsqaUBKTNV-1" parent="WIyWlLk6GJQsqaUBKTNV-0" />
        <mxCell id="WIyWlLk6GJQsqaUBKTNV-2" value="" style="rounded=0;html=1;jettySize=auto;orthogonalLoop=1;fontSize=11;endArrow=none;endFill=0;endSize=8;strokeWidth=1;shadow=0;labelBackgroundColor=none;edgeStyle=orthogonalEdgeStyle;" parent="WIyWlLk6GJQsqaUBKTNV-1" source="WIyWlLk6GJQsqaUBKTNV-3" target="WIyWlLk6GJQsqaUBKTNV-6" edge="1">
          <mxGeometry relative="1" as="geometry" />
        </mxCell>
        <mxCell id="YpnEVgcEmkKLJ1bC4rOm-63" style="edgeStyle=orthogonalEdgeStyle;rounded=0;orthogonalLoop=1;jettySize=auto;html=1;exitX=0.25;exitY=1;exitDx=0;exitDy=0;entryX=0;entryY=0.5;entryDx=0;entryDy=0;endArrow=none;endFill=0;" parent="WIyWlLk6GJQsqaUBKTNV-1" source="WIyWlLk6GJQsqaUBKTNV-3" target="WIyWlLk6GJQsqaUBKTNV-10" edge="1">
          <mxGeometry relative="1" as="geometry" />
        </mxCell>
        <mxCell id="WIyWlLk6GJQsqaUBKTNV-3" value="VENTAS" style="rounded=1;whiteSpace=wrap;html=1;fontSize=12;glass=0;strokeWidth=1;shadow=0;fillColor=#ffe6cc;strokeColor=#d79b00;" parent="WIyWlLk6GJQsqaUBKTNV-1" vertex="1">
          <mxGeometry x="80" y="180" width="120" height="40" as="geometry" />
        </mxCell>
        <mxCell id="YpnEVgcEmkKLJ1bC4rOm-2" style="edgeStyle=orthogonalEdgeStyle;rounded=0;orthogonalLoop=1;jettySize=auto;html=1;exitX=1;exitY=0.5;exitDx=0;exitDy=0;entryX=0;entryY=0.5;entryDx=0;entryDy=0;startArrow=none;startFill=0;endArrow=none;endFill=0;" parent="WIyWlLk6GJQsqaUBKTNV-1" source="WIyWlLk6GJQsqaUBKTNV-6" target="WIyWlLk6GJQsqaUBKTNV-7" edge="1">
          <mxGeometry relative="1" as="geometry" />
        </mxCell>
        <mxCell id="WIyWlLk6GJQsqaUBKTNV-6" value="tiene" style="rhombus;whiteSpace=wrap;html=1;shadow=0;fontFamily=Helvetica;fontSize=12;align=center;strokeWidth=1;spacing=6;spacingTop=-4;fillColor=#f8cecc;strokeColor=#b85450;" parent="WIyWlLk6GJQsqaUBKTNV-1" vertex="1">
          <mxGeometry x="250" y="170" width="70" height="60" as="geometry" />
        </mxCell>
        <mxCell id="WIyWlLk6GJQsqaUBKTNV-7" value="CLIENTES" style="rounded=1;whiteSpace=wrap;html=1;fontSize=12;glass=0;strokeWidth=1;shadow=0;fillColor=#ffe6cc;strokeColor=#d79b00;" parent="WIyWlLk6GJQsqaUBKTNV-1" vertex="1">
          <mxGeometry x="379" y="180" width="120" height="40" as="geometry" />
        </mxCell>
        <mxCell id="YpnEVgcEmkKLJ1bC4rOm-4" style="edgeStyle=orthogonalEdgeStyle;rounded=0;orthogonalLoop=1;jettySize=auto;html=1;entryX=0.5;entryY=0;entryDx=0;entryDy=0;endArrow=none;endFill=0;" parent="WIyWlLk6GJQsqaUBKTNV-1" source="WIyWlLk6GJQsqaUBKTNV-10" target="WIyWlLk6GJQsqaUBKTNV-12" edge="1">
          <mxGeometry relative="1" as="geometry" />
        </mxCell>
        <mxCell id="WIyWlLk6GJQsqaUBKTNV-10" value="detalle de venta" style="rhombus;whiteSpace=wrap;html=1;shadow=0;fontFamily=Helvetica;fontSize=12;align=center;strokeWidth=1;spacing=6;spacingTop=-4;fillColor=#f8cecc;strokeColor=#b85450;" parent="WIyWlLk6GJQsqaUBKTNV-1" vertex="1">
          <mxGeometry x="140" y="240" width="70" height="70" as="geometry" />
        </mxCell>
        <mxCell id="YpnEVgcEmkKLJ1bC4rOm-54" style="edgeStyle=orthogonalEdgeStyle;rounded=0;orthogonalLoop=1;jettySize=auto;html=1;entryX=1;entryY=0.5;entryDx=0;entryDy=0;dashed=1;endArrow=classic;endFill=1;" parent="WIyWlLk6GJQsqaUBKTNV-1" source="WIyWlLk6GJQsqaUBKTNV-11" target="YpnEVgcEmkKLJ1bC4rOm-16" edge="1">
          <mxGeometry relative="1" as="geometry" />
        </mxCell>
        <mxCell id="WIyWlLk6GJQsqaUBKTNV-11" value="MEDIOS DE COBRO" style="rounded=1;whiteSpace=wrap;html=1;fontSize=12;glass=0;strokeWidth=1;shadow=0;fillColor=#ffe6cc;strokeColor=#d79b00;" parent="WIyWlLk6GJQsqaUBKTNV-1" vertex="1">
          <mxGeometry x="250" y="20" width="120" height="40" as="geometry" />
        </mxCell>
        <mxCell id="PzolTzz_vceKMygofkCm-111" style="edgeStyle=orthogonalEdgeStyle;rounded=0;orthogonalLoop=1;jettySize=auto;html=1;exitX=1;exitY=0.5;exitDx=0;exitDy=0;entryX=0.5;entryY=0;entryDx=0;entryDy=0;endArrow=none;endFill=0;" parent="WIyWlLk6GJQsqaUBKTNV-1" source="WIyWlLk6GJQsqaUBKTNV-12" target="PzolTzz_vceKMygofkCm-104" edge="1">
          <mxGeometry relative="1" as="geometry" />
        </mxCell>
        <mxCell id="WIyWlLk6GJQsqaUBKTNV-12" value="NOTA DE PEDIDO" style="rounded=1;whiteSpace=wrap;html=1;fontSize=12;glass=0;strokeWidth=1;shadow=0;fillColor=#ffe6cc;strokeColor=#d79b00;" parent="WIyWlLk6GJQsqaUBKTNV-1" vertex="1">
          <mxGeometry x="100" y="320" width="120" height="40" as="geometry" />
        </mxCell>
        <mxCell id="YpnEVgcEmkKLJ1bC4rOm-59" style="edgeStyle=orthogonalEdgeStyle;rounded=0;orthogonalLoop=1;jettySize=auto;html=1;entryX=1;entryY=0.5;entryDx=0;entryDy=0;dashed=1;" parent="WIyWlLk6GJQsqaUBKTNV-1" source="YpnEVgcEmkKLJ1bC4rOm-5" target="YpnEVgcEmkKLJ1bC4rOm-11" edge="1">
          <mxGeometry relative="1" as="geometry" />
        </mxCell>
        <mxCell id="YpnEVgcEmkKLJ1bC4rOm-5" value="id_cliente" style="ellipse;whiteSpace=wrap;html=1;fillColor=#dae8fc;strokeColor=#6c8ebf;" parent="WIyWlLk6GJQsqaUBKTNV-1" vertex="1">
          <mxGeometry x="379" y="130" width="70" height="40" as="geometry" />
        </mxCell>
        <mxCell id="YpnEVgcEmkKLJ1bC4rOm-6" value="ciudad" style="ellipse;whiteSpace=wrap;html=1;" parent="WIyWlLk6GJQsqaUBKTNV-1" vertex="1">
          <mxGeometry x="580" y="170" width="70" height="40" as="geometry" />
        </mxCell>
        <mxCell id="YpnEVgcEmkKLJ1bC4rOm-8" value="domicilio" style="ellipse;whiteSpace=wrap;html=1;" parent="WIyWlLk6GJQsqaUBKTNV-1" vertex="1">
          <mxGeometry x="510" y="170" width="70" height="40" as="geometry" />
        </mxCell>
        <mxCell id="YpnEVgcEmkKLJ1bC4rOm-9" value="nombre" style="ellipse;whiteSpace=wrap;html=1;" parent="WIyWlLk6GJQsqaUBKTNV-1" vertex="1">
          <mxGeometry x="520" y="130" width="70" height="40" as="geometry" />
        </mxCell>
        <mxCell id="YpnEVgcEmkKLJ1bC4rOm-10" value="fecha" style="ellipse;whiteSpace=wrap;html=1;" parent="WIyWlLk6GJQsqaUBKTNV-1" vertex="1">
          <mxGeometry x="55" y="80" width="70" height="40" as="geometry" />
        </mxCell>
        <mxCell id="YpnEVgcEmkKLJ1bC4rOm-11" value="id_cliente" style="ellipse;whiteSpace=wrap;html=1;fillColor=#d5e8d4;strokeColor=#82b366;" parent="WIyWlLk6GJQsqaUBKTNV-1" vertex="1">
          <mxGeometry x="140" y="90" width="70" height="40" as="geometry" />
        </mxCell>
        <mxCell id="YpnEVgcEmkKLJ1bC4rOm-12" value="id_empleado" style="ellipse;whiteSpace=wrap;html=1;fillColor=#d5e8d4;strokeColor=#82b366;" parent="WIyWlLk6GJQsqaUBKTNV-1" vertex="1">
          <mxGeometry x="40" y="40" width="70" height="40" as="geometry" />
        </mxCell>
        <mxCell id="YpnEVgcEmkKLJ1bC4rOm-13" value="importe total" style="ellipse;whiteSpace=wrap;html=1;" parent="WIyWlLk6GJQsqaUBKTNV-1" vertex="1">
          <mxGeometry x="130" y="130" width="70" height="40" as="geometry" />
        </mxCell>
        <mxCell id="YpnEVgcEmkKLJ1bC4rOm-16" value="id_medio&lt;div&gt;de cobro&lt;/div&gt;" style="ellipse;whiteSpace=wrap;html=1;fillColor=#d5e8d4;strokeColor=#82b366;" parent="WIyWlLk6GJQsqaUBKTNV-1" vertex="1">
          <mxGeometry x="100" y="10" width="70" height="40" as="geometry" />
        </mxCell>
        <mxCell id="YpnEVgcEmkKLJ1bC4rOm-133" style="edgeStyle=orthogonalEdgeStyle;rounded=0;orthogonalLoop=1;jettySize=auto;html=1;exitX=0;exitY=1;exitDx=0;exitDy=0;entryX=0;entryY=0.5;entryDx=0;entryDy=0;dashed=1;" parent="WIyWlLk6GJQsqaUBKTNV-1" source="YpnEVgcEmkKLJ1bC4rOm-17" target="YpnEVgcEmkKLJ1bC4rOm-22" edge="1">
          <mxGeometry relative="1" as="geometry" />
        </mxCell>
        <mxCell id="YpnEVgcEmkKLJ1bC4rOm-17" value="Id_venta" style="ellipse;whiteSpace=wrap;html=1;fillColor=#dae8fc;strokeColor=#6c8ebf;" parent="WIyWlLk6GJQsqaUBKTNV-1" vertex="1">
          <mxGeometry x="55" y="130" width="70" height="40" as="geometry" />
        </mxCell>
        <mxCell id="YpnEVgcEmkKLJ1bC4rOm-19" value="transporte" style="ellipse;whiteSpace=wrap;html=1;" parent="WIyWlLk6GJQsqaUBKTNV-1" vertex="1">
          <mxGeometry x="590" y="130" width="70" height="40" as="geometry" />
        </mxCell>
        <mxCell id="YpnEVgcEmkKLJ1bC4rOm-20" value="fecha" style="ellipse;whiteSpace=wrap;html=1;" parent="WIyWlLk6GJQsqaUBKTNV-1" vertex="1">
          <mxGeometry x="90" y="360" width="70" height="40" as="geometry" />
        </mxCell>
        <mxCell id="YpnEVgcEmkKLJ1bC4rOm-85" style="edgeStyle=orthogonalEdgeStyle;rounded=0;orthogonalLoop=1;jettySize=auto;html=1;exitX=1;exitY=0.5;exitDx=0;exitDy=0;entryX=0;entryY=0.5;entryDx=0;entryDy=0;dashed=1;" parent="WIyWlLk6GJQsqaUBKTNV-1" edge="1">
          <mxGeometry relative="1" as="geometry">
            <mxPoint x="230" y="375" as="sourcePoint" />
            <mxPoint x="360" y="365" as="targetPoint" />
            <Array as="points">
              <mxPoint x="290" y="375" />
              <mxPoint x="290" y="365" />
            </Array>
          </mxGeometry>
        </mxCell>
        <mxCell id="2TdhiZZe4eSGj6O0BxJE-32" style="edgeStyle=orthogonalEdgeStyle;rounded=0;orthogonalLoop=1;jettySize=auto;html=1;exitX=1;exitY=0.5;exitDx=0;exitDy=0;entryX=0;entryY=0.5;entryDx=0;entryDy=0;dashed=1;" parent="WIyWlLk6GJQsqaUBKTNV-1" edge="1">
          <mxGeometry relative="1" as="geometry">
            <mxPoint x="220" y="382.5" as="sourcePoint" />
            <mxPoint x="480" y="917.5" as="targetPoint" />
            <Array as="points">
              <mxPoint x="350" y="382.5" />
              <mxPoint x="350" y="917.5" />
            </Array>
          </mxGeometry>
        </mxCell>
        <mxCell id="YpnEVgcEmkKLJ1bC4rOm-21" value="id pedido" style="ellipse;whiteSpace=wrap;html=1;fillColor=#dae8fc;strokeColor=#6c8ebf;" parent="WIyWlLk6GJQsqaUBKTNV-1" vertex="1">
          <mxGeometry x="160" y="360" width="70" height="40" as="geometry" />
        </mxCell>
        <mxCell id="YpnEVgcEmkKLJ1bC4rOm-22" value="id_venta" style="ellipse;whiteSpace=wrap;html=1;fillColor=#d5e8d4;strokeColor=#82b366;" parent="WIyWlLk6GJQsqaUBKTNV-1" vertex="1">
          <mxGeometry x="90" y="400" width="70" height="40" as="geometry" />
        </mxCell>
        <mxCell id="YpnEVgcEmkKLJ1bC4rOm-38" value="plazo entrega" style="ellipse;whiteSpace=wrap;html=1;" parent="WIyWlLk6GJQsqaUBKTNV-1" vertex="1">
          <mxGeometry x="160" y="400" width="70" height="40" as="geometry" />
        </mxCell>
        <mxCell id="YpnEVgcEmkKLJ1bC4rOm-39" value="precio unitario" style="ellipse;whiteSpace=wrap;html=1;" parent="WIyWlLk6GJQsqaUBKTNV-1" vertex="1">
          <mxGeometry x="160" y="565" width="70" height="40" as="geometry" />
        </mxCell>
        <mxCell id="YpnEVgcEmkKLJ1bC4rOm-40" value="lustre" style="ellipse;whiteSpace=wrap;html=1;" parent="WIyWlLk6GJQsqaUBKTNV-1" vertex="1">
          <mxGeometry x="160" y="485" width="70" height="40" as="geometry" />
        </mxCell>
        <mxCell id="YpnEVgcEmkKLJ1bC4rOm-41" value="tela" style="ellipse;whiteSpace=wrap;html=1;" parent="WIyWlLk6GJQsqaUBKTNV-1" vertex="1">
          <mxGeometry x="160" y="440" width="70" height="40" as="geometry" />
        </mxCell>
        <mxCell id="YpnEVgcEmkKLJ1bC4rOm-42" value="id_producto" style="ellipse;whiteSpace=wrap;html=1;fillColor=#d5e8d4;strokeColor=#82b366;" parent="WIyWlLk6GJQsqaUBKTNV-1" vertex="1">
          <mxGeometry x="90" y="440" width="70" height="40" as="geometry" />
        </mxCell>
        <mxCell id="YpnEVgcEmkKLJ1bC4rOm-43" value="descripcion&lt;div&gt;adicional&lt;/div&gt;" style="ellipse;whiteSpace=wrap;html=1;" parent="WIyWlLk6GJQsqaUBKTNV-1" vertex="1">
          <mxGeometry x="160" y="525" width="70" height="40" as="geometry" />
        </mxCell>
        <mxCell id="YpnEVgcEmkKLJ1bC4rOm-45" value="cantidad" style="ellipse;whiteSpace=wrap;html=1;" parent="WIyWlLk6GJQsqaUBKTNV-1" vertex="1">
          <mxGeometry x="90" y="565" width="70" height="40" as="geometry" />
        </mxCell>
        <mxCell id="YpnEVgcEmkKLJ1bC4rOm-46" value="id&lt;div&gt;modelo&lt;/div&gt;" style="ellipse;whiteSpace=wrap;html=1;fillColor=#d5e8d4;strokeColor=#82b366;" parent="WIyWlLk6GJQsqaUBKTNV-1" vertex="1">
          <mxGeometry x="90" y="480" width="70" height="40" as="geometry" />
        </mxCell>
        <mxCell id="YpnEVgcEmkKLJ1bC4rOm-47" value="medida" style="ellipse;whiteSpace=wrap;html=1;" parent="WIyWlLk6GJQsqaUBKTNV-1" vertex="1">
          <mxGeometry x="90" y="525" width="70" height="40" as="geometry" />
        </mxCell>
        <mxCell id="YpnEVgcEmkKLJ1bC4rOm-51" style="edgeStyle=orthogonalEdgeStyle;rounded=0;orthogonalLoop=1;jettySize=auto;html=1;exitX=0.5;exitY=1;exitDx=0;exitDy=0;" parent="WIyWlLk6GJQsqaUBKTNV-1" source="YpnEVgcEmkKLJ1bC4rOm-19" target="YpnEVgcEmkKLJ1bC4rOm-19" edge="1">
          <mxGeometry relative="1" as="geometry" />
        </mxCell>
        <mxCell id="YpnEVgcEmkKLJ1bC4rOm-52" value="apellido" style="ellipse;whiteSpace=wrap;html=1;" parent="WIyWlLk6GJQsqaUBKTNV-1" vertex="1">
          <mxGeometry x="450" y="130" width="70" height="40" as="geometry" />
        </mxCell>
        <mxCell id="YpnEVgcEmkKLJ1bC4rOm-55" value="id medio&lt;div&gt;de cobro&lt;/div&gt;" style="ellipse;whiteSpace=wrap;html=1;fillColor=#dae8fc;strokeColor=#6c8ebf;" parent="WIyWlLk6GJQsqaUBKTNV-1" vertex="1">
          <mxGeometry x="379" y="20" width="70" height="40" as="geometry" />
        </mxCell>
        <mxCell id="YpnEVgcEmkKLJ1bC4rOm-56" value="tipo de cobro" style="ellipse;whiteSpace=wrap;html=1;" parent="WIyWlLk6GJQsqaUBKTNV-1" vertex="1">
          <mxGeometry x="449" y="20" width="70" height="40" as="geometry" />
        </mxCell>
        <mxCell id="YpnEVgcEmkKLJ1bC4rOm-57" value="comision&lt;div&gt;empleado&lt;/div&gt;" style="ellipse;whiteSpace=wrap;html=1;" parent="WIyWlLk6GJQsqaUBKTNV-1" vertex="1">
          <mxGeometry x="404" y="60" width="70" height="40" as="geometry" />
        </mxCell>
        <mxCell id="YpnEVgcEmkKLJ1bC4rOm-60" value="celular" style="ellipse;whiteSpace=wrap;html=1;" parent="WIyWlLk6GJQsqaUBKTNV-1" vertex="1">
          <mxGeometry x="650" y="160" width="70" height="40" as="geometry" />
        </mxCell>
        <mxCell id="YpnEVgcEmkKLJ1bC4rOm-90" style="edgeStyle=orthogonalEdgeStyle;rounded=0;orthogonalLoop=1;jettySize=auto;html=1;exitX=1;exitY=0.5;exitDx=0;exitDy=0;entryX=0;entryY=0.5;entryDx=0;entryDy=0;endArrow=none;endFill=0;" parent="WIyWlLk6GJQsqaUBKTNV-1" source="YpnEVgcEmkKLJ1bC4rOm-64" target="YpnEVgcEmkKLJ1bC4rOm-89" edge="1">
          <mxGeometry relative="1" as="geometry" />
        </mxCell>
        <mxCell id="YpnEVgcEmkKLJ1bC4rOm-64" value="ORDEN DE TRABAJO" style="rounded=1;whiteSpace=wrap;html=1;fontSize=12;glass=0;strokeWidth=1;shadow=0;fillColor=#ffe6cc;strokeColor=#d79b00;" parent="WIyWlLk6GJQsqaUBKTNV-1" vertex="1">
          <mxGeometry x="370" y="265" width="120" height="40" as="geometry" />
        </mxCell>
        <mxCell id="YpnEVgcEmkKLJ1bC4rOm-65" value="id_orden" style="ellipse;whiteSpace=wrap;html=1;fillColor=#dae8fc;strokeColor=#6c8ebf;" parent="WIyWlLk6GJQsqaUBKTNV-1" vertex="1">
          <mxGeometry x="430" y="310" width="70" height="40" as="geometry" />
        </mxCell>
        <mxCell id="YpnEVgcEmkKLJ1bC4rOm-66" value="fecha" style="ellipse;whiteSpace=wrap;html=1;" parent="WIyWlLk6GJQsqaUBKTNV-1" vertex="1">
          <mxGeometry x="360" y="310" width="70" height="40" as="geometry" />
        </mxCell>
        <mxCell id="YpnEVgcEmkKLJ1bC4rOm-67" value="id_pedido" style="ellipse;whiteSpace=wrap;html=1;fillColor=#d5e8d4;strokeColor=#82b366;" parent="WIyWlLk6GJQsqaUBKTNV-1" vertex="1">
          <mxGeometry x="360" y="350" width="70" height="40" as="geometry" />
        </mxCell>
        <mxCell id="YpnEVgcEmkKLJ1bC4rOm-70" value="importe&lt;div&gt;trabajo&lt;/div&gt;" style="ellipse;whiteSpace=wrap;html=1;" parent="WIyWlLk6GJQsqaUBKTNV-1" vertex="1">
          <mxGeometry x="430" y="390" width="70" height="40" as="geometry" />
        </mxCell>
        <mxCell id="YpnEVgcEmkKLJ1bC4rOm-71" value="plazo&lt;div&gt;entrega&lt;/div&gt;" style="ellipse;whiteSpace=wrap;html=1;" parent="WIyWlLk6GJQsqaUBKTNV-1" vertex="1">
          <mxGeometry x="360" y="390" width="70" height="40" as="geometry" />
        </mxCell>
        <mxCell id="YpnEVgcEmkKLJ1bC4rOm-72" value="id colabo&lt;div&gt;rador&lt;/div&gt;" style="ellipse;whiteSpace=wrap;html=1;fillColor=#d5e8d4;strokeColor=#82b366;" parent="WIyWlLk6GJQsqaUBKTNV-1" vertex="1">
          <mxGeometry x="430" y="355" width="70" height="40" as="geometry" />
        </mxCell>
        <mxCell id="YpnEVgcEmkKLJ1bC4rOm-75" value="estado" style="ellipse;whiteSpace=wrap;html=1;" parent="WIyWlLk6GJQsqaUBKTNV-1" vertex="1">
          <mxGeometry x="360" y="430" width="70" height="40" as="geometry" />
        </mxCell>
        <mxCell id="YpnEVgcEmkKLJ1bC4rOm-80" value="" style="edgeStyle=orthogonalEdgeStyle;rounded=0;orthogonalLoop=1;jettySize=auto;html=1;endArrow=none;endFill=0;" parent="WIyWlLk6GJQsqaUBKTNV-1" source="YpnEVgcEmkKLJ1bC4rOm-79" target="WIyWlLk6GJQsqaUBKTNV-12" edge="1">
          <mxGeometry relative="1" as="geometry" />
        </mxCell>
        <mxCell id="YpnEVgcEmkKLJ1bC4rOm-81" style="edgeStyle=orthogonalEdgeStyle;rounded=0;orthogonalLoop=1;jettySize=auto;html=1;exitX=1;exitY=0.5;exitDx=0;exitDy=0;entryX=0;entryY=0.5;entryDx=0;entryDy=0;endArrow=none;endFill=0;" parent="WIyWlLk6GJQsqaUBKTNV-1" source="YpnEVgcEmkKLJ1bC4rOm-79" target="YpnEVgcEmkKLJ1bC4rOm-64" edge="1">
          <mxGeometry relative="1" as="geometry" />
        </mxCell>
        <mxCell id="YpnEVgcEmkKLJ1bC4rOm-79" value="genera" style="rhombus;whiteSpace=wrap;html=1;shadow=0;fontFamily=Helvetica;fontSize=12;align=center;strokeWidth=1;spacing=6;spacingTop=-4;fillColor=#f8cecc;strokeColor=#b85450;" parent="WIyWlLk6GJQsqaUBKTNV-1" vertex="1">
          <mxGeometry x="250" y="270" width="70" height="60" as="geometry" />
        </mxCell>
        <mxCell id="YpnEVgcEmkKLJ1bC4rOm-82" style="edgeStyle=orthogonalEdgeStyle;rounded=0;orthogonalLoop=1;jettySize=auto;html=1;exitX=0.5;exitY=1;exitDx=0;exitDy=0;" parent="WIyWlLk6GJQsqaUBKTNV-1" source="YpnEVgcEmkKLJ1bC4rOm-75" target="YpnEVgcEmkKLJ1bC4rOm-75" edge="1">
          <mxGeometry relative="1" as="geometry" />
        </mxCell>
        <mxCell id="YpnEVgcEmkKLJ1bC4rOm-103" style="edgeStyle=orthogonalEdgeStyle;rounded=0;orthogonalLoop=1;jettySize=auto;html=1;exitX=1;exitY=0.5;exitDx=0;exitDy=0;entryX=0;entryY=0.5;entryDx=0;entryDy=0;endArrow=none;endFill=0;" parent="WIyWlLk6GJQsqaUBKTNV-1" source="YpnEVgcEmkKLJ1bC4rOm-89" target="YpnEVgcEmkKLJ1bC4rOm-102" edge="1">
          <mxGeometry relative="1" as="geometry" />
        </mxCell>
        <mxCell id="YpnEVgcEmkKLJ1bC4rOm-89" value="contrata" style="rhombus;whiteSpace=wrap;html=1;shadow=0;fontFamily=Helvetica;fontSize=12;align=center;strokeWidth=1;spacing=6;spacingTop=-4;fillColor=#f8cecc;strokeColor=#b85450;" parent="WIyWlLk6GJQsqaUBKTNV-1" vertex="1">
          <mxGeometry x="530" y="245" width="70" height="60" as="geometry" />
        </mxCell>
        <mxCell id="YpnEVgcEmkKLJ1bC4rOm-93" value="domicilio" style="ellipse;whiteSpace=wrap;html=1;" parent="WIyWlLk6GJQsqaUBKTNV-1" vertex="1">
          <mxGeometry x="700" y="295" width="70" height="40" as="geometry" />
        </mxCell>
        <mxCell id="YpnEVgcEmkKLJ1bC4rOm-94" value="apellido" style="ellipse;whiteSpace=wrap;html=1;" parent="WIyWlLk6GJQsqaUBKTNV-1" vertex="1">
          <mxGeometry x="630" y="335" width="70" height="40" as="geometry" />
        </mxCell>
        <mxCell id="YpnEVgcEmkKLJ1bC4rOm-95" value="celular" style="ellipse;whiteSpace=wrap;html=1;" parent="WIyWlLk6GJQsqaUBKTNV-1" vertex="1">
          <mxGeometry x="700" y="335" width="70" height="40" as="geometry" />
        </mxCell>
        <mxCell id="YpnEVgcEmkKLJ1bC4rOm-97" value="tipo de&amp;nbsp;&lt;div&gt;pago&lt;/div&gt;" style="ellipse;whiteSpace=wrap;html=1;" parent="WIyWlLk6GJQsqaUBKTNV-1" vertex="1">
          <mxGeometry x="700" y="375" width="70" height="40" as="geometry" />
        </mxCell>
        <mxCell id="YpnEVgcEmkKLJ1bC4rOm-98" value="nombre" style="ellipse;whiteSpace=wrap;html=1;" parent="WIyWlLk6GJQsqaUBKTNV-1" vertex="1">
          <mxGeometry x="630" y="375" width="70" height="40" as="geometry" />
        </mxCell>
        <mxCell id="YpnEVgcEmkKLJ1bC4rOm-104" style="edgeStyle=orthogonalEdgeStyle;rounded=0;orthogonalLoop=1;jettySize=auto;html=1;exitX=0;exitY=0.5;exitDx=0;exitDy=0;entryX=1;entryY=0.5;entryDx=0;entryDy=0;dashed=1;" parent="WIyWlLk6GJQsqaUBKTNV-1" source="YpnEVgcEmkKLJ1bC4rOm-99" target="YpnEVgcEmkKLJ1bC4rOm-72" edge="1">
          <mxGeometry relative="1" as="geometry" />
        </mxCell>
        <mxCell id="YpnEVgcEmkKLJ1bC4rOm-99" value="id colabo&lt;div&gt;rador&lt;/div&gt;" style="ellipse;whiteSpace=wrap;html=1;fillColor=#dae8fc;strokeColor=#6c8ebf;" parent="WIyWlLk6GJQsqaUBKTNV-1" vertex="1">
          <mxGeometry x="630" y="295" width="70" height="40" as="geometry" />
        </mxCell>
        <mxCell id="YpnEVgcEmkKLJ1bC4rOm-100" value="id_sector" style="ellipse;whiteSpace=wrap;html=1;fillColor=#d5e8d4;strokeColor=#82b366;" parent="WIyWlLk6GJQsqaUBKTNV-1" vertex="1">
          <mxGeometry x="630" y="415" width="70" height="40" as="geometry" />
        </mxCell>
        <mxCell id="YpnEVgcEmkKLJ1bC4rOm-101" style="edgeStyle=orthogonalEdgeStyle;rounded=0;orthogonalLoop=1;jettySize=auto;html=1;exitX=0.5;exitY=1;exitDx=0;exitDy=0;" parent="WIyWlLk6GJQsqaUBKTNV-1" source="YpnEVgcEmkKLJ1bC4rOm-100" target="YpnEVgcEmkKLJ1bC4rOm-100" edge="1">
          <mxGeometry relative="1" as="geometry" />
        </mxCell>
        <mxCell id="YpnEVgcEmkKLJ1bC4rOm-113" style="edgeStyle=orthogonalEdgeStyle;rounded=0;orthogonalLoop=1;jettySize=auto;html=1;exitX=1;exitY=0.25;exitDx=0;exitDy=0;endArrow=none;endFill=0;" parent="WIyWlLk6GJQsqaUBKTNV-1" source="YpnEVgcEmkKLJ1bC4rOm-102" target="YpnEVgcEmkKLJ1bC4rOm-112" edge="1">
          <mxGeometry relative="1" as="geometry" />
        </mxCell>
        <mxCell id="YpnEVgcEmkKLJ1bC4rOm-102" value="COLABORADORES" style="rounded=1;whiteSpace=wrap;html=1;fontSize=12;glass=0;strokeWidth=1;shadow=0;fillColor=#ffe6cc;strokeColor=#d79b00;" parent="WIyWlLk6GJQsqaUBKTNV-1" vertex="1">
          <mxGeometry x="650" y="245" width="120" height="40" as="geometry" />
        </mxCell>
        <mxCell id="YpnEVgcEmkKLJ1bC4rOm-105" value="SECTOR" style="rounded=1;whiteSpace=wrap;html=1;fontSize=12;glass=0;strokeWidth=1;shadow=0;fillColor=#ffe6cc;strokeColor=#d79b00;" parent="WIyWlLk6GJQsqaUBKTNV-1" vertex="1">
          <mxGeometry x="770" y="490" width="120" height="40" as="geometry" />
        </mxCell>
        <mxCell id="YpnEVgcEmkKLJ1bC4rOm-141" style="edgeStyle=orthogonalEdgeStyle;rounded=0;orthogonalLoop=1;jettySize=auto;html=1;exitX=0;exitY=0.5;exitDx=0;exitDy=0;entryX=1;entryY=1;entryDx=0;entryDy=0;dashed=1;" parent="WIyWlLk6GJQsqaUBKTNV-1" source="YpnEVgcEmkKLJ1bC4rOm-106" target="YpnEVgcEmkKLJ1bC4rOm-100" edge="1">
          <mxGeometry relative="1" as="geometry" />
        </mxCell>
        <mxCell id="YpnEVgcEmkKLJ1bC4rOm-142" style="edgeStyle=orthogonalEdgeStyle;rounded=0;orthogonalLoop=1;jettySize=auto;html=1;exitX=0;exitY=0.5;exitDx=0;exitDy=0;entryX=1;entryY=0.5;entryDx=0;entryDy=0;dashed=1;" parent="WIyWlLk6GJQsqaUBKTNV-1" source="YpnEVgcEmkKLJ1bC4rOm-106" target="YpnEVgcEmkKLJ1bC4rOm-123" edge="1">
          <mxGeometry relative="1" as="geometry" />
        </mxCell>
        <mxCell id="2TdhiZZe4eSGj6O0BxJE-30" style="edgeStyle=orthogonalEdgeStyle;rounded=0;orthogonalLoop=1;jettySize=auto;html=1;exitX=1;exitY=0.5;exitDx=0;exitDy=0;entryX=1;entryY=0.5;entryDx=0;entryDy=0;dashed=1;" parent="WIyWlLk6GJQsqaUBKTNV-1" source="YpnEVgcEmkKLJ1bC4rOm-106" target="2TdhiZZe4eSGj6O0BxJE-29" edge="1">
          <mxGeometry relative="1" as="geometry" />
        </mxCell>
        <mxCell id="YpnEVgcEmkKLJ1bC4rOm-106" value="id_sector" style="ellipse;whiteSpace=wrap;html=1;fillColor=#dae8fc;strokeColor=#6c8ebf;" parent="WIyWlLk6GJQsqaUBKTNV-1" vertex="1">
          <mxGeometry x="795" y="540" width="70" height="40" as="geometry" />
        </mxCell>
        <mxCell id="YpnEVgcEmkKLJ1bC4rOm-109" value="nombre" style="ellipse;whiteSpace=wrap;html=1;" parent="WIyWlLk6GJQsqaUBKTNV-1" vertex="1">
          <mxGeometry x="795" y="580" width="70" height="40" as="geometry" />
        </mxCell>
        <mxCell id="YpnEVgcEmkKLJ1bC4rOm-115" style="edgeStyle=orthogonalEdgeStyle;rounded=0;orthogonalLoop=1;jettySize=auto;html=1;exitX=0.5;exitY=1;exitDx=0;exitDy=0;entryX=0.5;entryY=0;entryDx=0;entryDy=0;endArrow=none;endFill=0;" parent="WIyWlLk6GJQsqaUBKTNV-1" source="YpnEVgcEmkKLJ1bC4rOm-112" target="YpnEVgcEmkKLJ1bC4rOm-105" edge="1">
          <mxGeometry relative="1" as="geometry" />
        </mxCell>
        <mxCell id="YpnEVgcEmkKLJ1bC4rOm-112" value="pertenece" style="rhombus;whiteSpace=wrap;html=1;shadow=0;fontFamily=Helvetica;fontSize=12;align=center;strokeWidth=1;spacing=6;spacingTop=-4;fillColor=#f8cecc;strokeColor=#b85450;" parent="WIyWlLk6GJQsqaUBKTNV-1" vertex="1">
          <mxGeometry x="795" y="335" width="70" height="60" as="geometry" />
        </mxCell>
        <mxCell id="YpnEVgcEmkKLJ1bC4rOm-114" style="edgeStyle=orthogonalEdgeStyle;rounded=0;orthogonalLoop=1;jettySize=auto;html=1;exitX=0.5;exitY=1;exitDx=0;exitDy=0;" parent="WIyWlLk6GJQsqaUBKTNV-1" source="YpnEVgcEmkKLJ1bC4rOm-109" target="YpnEVgcEmkKLJ1bC4rOm-109" edge="1">
          <mxGeometry relative="1" as="geometry" />
        </mxCell>
        <mxCell id="YpnEVgcEmkKLJ1bC4rOm-117" value="fecha de&lt;div&gt;ingreso&lt;/div&gt;" style="ellipse;whiteSpace=wrap;html=1;" parent="WIyWlLk6GJQsqaUBKTNV-1" vertex="1">
          <mxGeometry x="430" y="525" width="70" height="40" as="geometry" />
        </mxCell>
        <mxCell id="YpnEVgcEmkKLJ1bC4rOm-118" value="apellido" style="ellipse;whiteSpace=wrap;html=1;" parent="WIyWlLk6GJQsqaUBKTNV-1" vertex="1">
          <mxGeometry x="360" y="525" width="70" height="40" as="geometry" />
        </mxCell>
        <mxCell id="YpnEVgcEmkKLJ1bC4rOm-119" value="jornada" style="ellipse;whiteSpace=wrap;html=1;" parent="WIyWlLk6GJQsqaUBKTNV-1" vertex="1">
          <mxGeometry x="430" y="685" width="70" height="40" as="geometry" />
        </mxCell>
        <mxCell id="YpnEVgcEmkKLJ1bC4rOm-120" value="celular" style="ellipse;whiteSpace=wrap;html=1;" parent="WIyWlLk6GJQsqaUBKTNV-1" vertex="1">
          <mxGeometry x="360" y="645" width="70" height="40" as="geometry" />
        </mxCell>
        <mxCell id="YpnEVgcEmkKLJ1bC4rOm-121" value="nombre" style="ellipse;whiteSpace=wrap;html=1;" parent="WIyWlLk6GJQsqaUBKTNV-1" vertex="1">
          <mxGeometry x="360" y="565" width="70" height="40" as="geometry" />
        </mxCell>
        <mxCell id="PzolTzz_vceKMygofkCm-27" style="edgeStyle=orthogonalEdgeStyle;rounded=0;orthogonalLoop=1;jettySize=auto;html=1;exitX=0.5;exitY=1;exitDx=0;exitDy=0;entryX=0;entryY=0.5;entryDx=0;entryDy=0;dashed=1;" parent="WIyWlLk6GJQsqaUBKTNV-1" source="YpnEVgcEmkKLJ1bC4rOm-122" target="PzolTzz_vceKMygofkCm-20" edge="1">
          <mxGeometry relative="1" as="geometry" />
        </mxCell>
        <mxCell id="2TdhiZZe4eSGj6O0BxJE-35" style="edgeStyle=orthogonalEdgeStyle;rounded=0;orthogonalLoop=1;jettySize=auto;html=1;exitX=0;exitY=0.5;exitDx=0;exitDy=0;entryX=0;entryY=0.5;entryDx=0;entryDy=0;dashed=1;" parent="WIyWlLk6GJQsqaUBKTNV-1" source="YpnEVgcEmkKLJ1bC4rOm-122" target="YpnEVgcEmkKLJ1bC4rOm-12" edge="1">
          <mxGeometry relative="1" as="geometry" />
        </mxCell>
        <mxCell id="YpnEVgcEmkKLJ1bC4rOm-122" value="id empleado" style="ellipse;whiteSpace=wrap;html=1;fillColor=#dae8fc;strokeColor=#6c8ebf;" parent="WIyWlLk6GJQsqaUBKTNV-1" vertex="1">
          <mxGeometry x="359" y="685" width="70" height="40" as="geometry" />
        </mxCell>
        <mxCell id="YpnEVgcEmkKLJ1bC4rOm-123" value="id_sector" style="ellipse;whiteSpace=wrap;html=1;fillColor=#d5e8d4;strokeColor=#82b366;" parent="WIyWlLk6GJQsqaUBKTNV-1" vertex="1">
          <mxGeometry x="430" y="565" width="70" height="40" as="geometry" />
        </mxCell>
        <mxCell id="YpnEVgcEmkKLJ1bC4rOm-124" style="edgeStyle=orthogonalEdgeStyle;rounded=0;orthogonalLoop=1;jettySize=auto;html=1;exitX=0.5;exitY=1;exitDx=0;exitDy=0;" parent="WIyWlLk6GJQsqaUBKTNV-1" source="YpnEVgcEmkKLJ1bC4rOm-123" target="YpnEVgcEmkKLJ1bC4rOm-123" edge="1">
          <mxGeometry relative="1" as="geometry" />
        </mxCell>
        <mxCell id="YpnEVgcEmkKLJ1bC4rOm-125" value="NOMINA DE PERSONAL" style="rounded=1;whiteSpace=wrap;html=1;fontSize=12;glass=0;strokeWidth=1;shadow=0;fillColor=#ffe6cc;strokeColor=#d79b00;" parent="WIyWlLk6GJQsqaUBKTNV-1" vertex="1">
          <mxGeometry x="379" y="485" width="120" height="40" as="geometry" />
        </mxCell>
        <mxCell id="YpnEVgcEmkKLJ1bC4rOm-126" value="domicilio" style="ellipse;whiteSpace=wrap;html=1;" parent="WIyWlLk6GJQsqaUBKTNV-1" vertex="1">
          <mxGeometry x="360" y="605" width="70" height="40" as="geometry" />
        </mxCell>
        <mxCell id="YpnEVgcEmkKLJ1bC4rOm-127" value="categoria" style="ellipse;whiteSpace=wrap;html=1;" parent="WIyWlLk6GJQsqaUBKTNV-1" vertex="1">
          <mxGeometry x="429" y="645" width="70" height="40" as="geometry" />
        </mxCell>
        <mxCell id="YpnEVgcEmkKLJ1bC4rOm-128" value="convenio" style="ellipse;whiteSpace=wrap;html=1;" parent="WIyWlLk6GJQsqaUBKTNV-1" vertex="1">
          <mxGeometry x="429" y="605" width="70" height="40" as="geometry" />
        </mxCell>
        <mxCell id="YpnEVgcEmkKLJ1bC4rOm-137" style="edgeStyle=orthogonalEdgeStyle;rounded=0;orthogonalLoop=1;jettySize=auto;html=1;exitX=0;exitY=0.5;exitDx=0;exitDy=0;entryX=1;entryY=0.25;entryDx=0;entryDy=0;endArrow=none;endFill=0;" parent="WIyWlLk6GJQsqaUBKTNV-1" source="YpnEVgcEmkKLJ1bC4rOm-136" target="YpnEVgcEmkKLJ1bC4rOm-125" edge="1">
          <mxGeometry relative="1" as="geometry" />
        </mxCell>
        <mxCell id="YpnEVgcEmkKLJ1bC4rOm-138" style="edgeStyle=orthogonalEdgeStyle;rounded=0;orthogonalLoop=1;jettySize=auto;html=1;exitX=1;exitY=0.5;exitDx=0;exitDy=0;entryX=0;entryY=0.5;entryDx=0;entryDy=0;endArrow=none;endFill=0;" parent="WIyWlLk6GJQsqaUBKTNV-1" source="YpnEVgcEmkKLJ1bC4rOm-136" target="YpnEVgcEmkKLJ1bC4rOm-105" edge="1">
          <mxGeometry relative="1" as="geometry" />
        </mxCell>
        <mxCell id="YpnEVgcEmkKLJ1bC4rOm-136" value="pertenece" style="rhombus;whiteSpace=wrap;html=1;shadow=0;fontFamily=Helvetica;fontSize=12;align=center;strokeWidth=1;spacing=6;spacingTop=-4;fillColor=#f8cecc;strokeColor=#b85450;" parent="WIyWlLk6GJQsqaUBKTNV-1" vertex="1">
          <mxGeometry x="550" y="490" width="70" height="60" as="geometry" />
        </mxCell>
        <mxCell id="2TdhiZZe4eSGj6O0BxJE-28" style="edgeStyle=orthogonalEdgeStyle;rounded=0;orthogonalLoop=1;jettySize=auto;html=1;exitX=0;exitY=1;exitDx=0;exitDy=0;entryX=1;entryY=0.5;entryDx=0;entryDy=0;dashed=1;" parent="WIyWlLk6GJQsqaUBKTNV-1" source="PzolTzz_vceKMygofkCm-1" target="PzolTzz_vceKMygofkCm-24" edge="1">
          <mxGeometry relative="1" as="geometry" />
        </mxCell>
        <mxCell id="PzolTzz_vceKMygofkCm-1" value="id proveedor" style="ellipse;whiteSpace=wrap;html=1;fillColor=#dae8fc;strokeColor=#6c8ebf;" parent="WIyWlLk6GJQsqaUBKTNV-1" vertex="1">
          <mxGeometry x="707.5" y="830" width="70" height="40" as="geometry" />
        </mxCell>
        <mxCell id="PzolTzz_vceKMygofkCm-2" value="transporte" style="ellipse;whiteSpace=wrap;html=1;" parent="WIyWlLk6GJQsqaUBKTNV-1" vertex="1">
          <mxGeometry x="750" y="790" width="70" height="40" as="geometry" />
        </mxCell>
        <mxCell id="PzolTzz_vceKMygofkCm-3" value="domicilio" style="ellipse;whiteSpace=wrap;html=1;" parent="WIyWlLk6GJQsqaUBKTNV-1" vertex="1">
          <mxGeometry x="680" y="710" width="70" height="40" as="geometry" />
        </mxCell>
        <mxCell id="PzolTzz_vceKMygofkCm-4" value="razon&lt;div&gt;social&lt;/div&gt;" style="ellipse;whiteSpace=wrap;html=1;" parent="WIyWlLk6GJQsqaUBKTNV-1" vertex="1">
          <mxGeometry x="675" y="670" width="70" height="40" as="geometry" />
        </mxCell>
        <mxCell id="PzolTzz_vceKMygofkCm-5" value="ciudad" style="ellipse;whiteSpace=wrap;html=1;" parent="WIyWlLk6GJQsqaUBKTNV-1" vertex="1">
          <mxGeometry x="680" y="750" width="70" height="40" as="geometry" />
        </mxCell>
        <mxCell id="PzolTzz_vceKMygofkCm-7" style="edgeStyle=orthogonalEdgeStyle;rounded=0;orthogonalLoop=1;jettySize=auto;html=1;exitX=0.5;exitY=1;exitDx=0;exitDy=0;" parent="WIyWlLk6GJQsqaUBKTNV-1" edge="1">
          <mxGeometry relative="1" as="geometry">
            <mxPoint x="772.5" y="760" as="sourcePoint" />
            <mxPoint x="772.5" y="760" as="targetPoint" />
          </mxGeometry>
        </mxCell>
        <mxCell id="PzolTzz_vceKMygofkCm-96" style="edgeStyle=orthogonalEdgeStyle;rounded=0;orthogonalLoop=1;jettySize=auto;html=1;exitX=0;exitY=0.5;exitDx=0;exitDy=0;entryX=1;entryY=0.5;entryDx=0;entryDy=0;endArrow=none;endFill=0;" parent="WIyWlLk6GJQsqaUBKTNV-1" source="PzolTzz_vceKMygofkCm-8" target="PzolTzz_vceKMygofkCm-92" edge="1">
          <mxGeometry relative="1" as="geometry" />
        </mxCell>
        <mxCell id="2TdhiZZe4eSGj6O0BxJE-6" style="edgeStyle=orthogonalEdgeStyle;rounded=0;orthogonalLoop=1;jettySize=auto;html=1;exitX=1;exitY=0.5;exitDx=0;exitDy=0;endArrow=none;endFill=0;" parent="WIyWlLk6GJQsqaUBKTNV-1" source="2TdhiZZe4eSGj6O0BxJE-7" target="PzolTzz_vceKMygofkCm-38" edge="1">
          <mxGeometry relative="1" as="geometry" />
        </mxCell>
        <mxCell id="PzolTzz_vceKMygofkCm-8" value="PROVEEDORES" style="rounded=1;whiteSpace=wrap;html=1;fontSize=12;glass=0;strokeWidth=1;shadow=0;fillColor=#ffe6cc;strokeColor=#d79b00;" parent="WIyWlLk6GJQsqaUBKTNV-1" vertex="1">
          <mxGeometry x="682.5" y="630" width="120" height="40" as="geometry" />
        </mxCell>
        <mxCell id="PzolTzz_vceKMygofkCm-9" value="cuit" style="ellipse;whiteSpace=wrap;html=1;" parent="WIyWlLk6GJQsqaUBKTNV-1" vertex="1">
          <mxGeometry x="745" y="670" width="70" height="40" as="geometry" />
        </mxCell>
        <mxCell id="PzolTzz_vceKMygofkCm-10" value="condicion&lt;div&gt;pago&lt;/div&gt;" style="ellipse;whiteSpace=wrap;html=1;" parent="WIyWlLk6GJQsqaUBKTNV-1" vertex="1">
          <mxGeometry x="750" y="750" width="70" height="40" as="geometry" />
        </mxCell>
        <mxCell id="PzolTzz_vceKMygofkCm-11" value="celular" style="ellipse;whiteSpace=wrap;html=1;" parent="WIyWlLk6GJQsqaUBKTNV-1" vertex="1">
          <mxGeometry x="750" y="710" width="70" height="40" as="geometry" />
        </mxCell>
        <mxCell id="PzolTzz_vceKMygofkCm-14" style="edgeStyle=orthogonalEdgeStyle;rounded=0;orthogonalLoop=1;jettySize=auto;html=1;exitX=0.5;exitY=1;exitDx=0;exitDy=0;" parent="WIyWlLk6GJQsqaUBKTNV-1" edge="1">
          <mxGeometry relative="1" as="geometry">
            <mxPoint x="657.5" y="720" as="sourcePoint" />
            <mxPoint x="657.5" y="720" as="targetPoint" />
          </mxGeometry>
        </mxCell>
        <mxCell id="PzolTzz_vceKMygofkCm-16" value="id orden&lt;div&gt;compra&lt;/div&gt;" style="ellipse;whiteSpace=wrap;html=1;fillColor=#dae8fc;strokeColor=#6c8ebf;" parent="WIyWlLk6GJQsqaUBKTNV-1" vertex="1">
          <mxGeometry x="490" y="770" width="70" height="40" as="geometry" />
        </mxCell>
        <mxCell id="PzolTzz_vceKMygofkCm-17" value="total" style="ellipse;whiteSpace=wrap;html=1;" parent="WIyWlLk6GJQsqaUBKTNV-1" vertex="1">
          <mxGeometry x="530" y="855" width="70" height="40" as="geometry" />
        </mxCell>
        <mxCell id="PzolTzz_vceKMygofkCm-18" value="id&amp;nbsp;&lt;div&gt;pedido&lt;/div&gt;" style="ellipse;whiteSpace=wrap;html=1;fillColor=#d5e8d4;strokeColor=#82b366;" parent="WIyWlLk6GJQsqaUBKTNV-1" vertex="1">
          <mxGeometry x="490" y="895" width="70" height="40" as="geometry" />
        </mxCell>
        <mxCell id="PzolTzz_vceKMygofkCm-19" value="fecha" style="ellipse;whiteSpace=wrap;html=1;" parent="WIyWlLk6GJQsqaUBKTNV-1" vertex="1">
          <mxGeometry x="565" y="770" width="70" height="40" as="geometry" />
        </mxCell>
        <mxCell id="PzolTzz_vceKMygofkCm-20" value="id&lt;div&gt;empleado&lt;/div&gt;" style="ellipse;whiteSpace=wrap;html=1;fillColor=#d5e8d4;strokeColor=#82b366;" parent="WIyWlLk6GJQsqaUBKTNV-1" vertex="1">
          <mxGeometry x="490" y="940" width="70" height="40" as="geometry" />
        </mxCell>
        <mxCell id="PzolTzz_vceKMygofkCm-21" value="id articulo" style="ellipse;whiteSpace=wrap;html=1;fillColor=#d5e8d4;strokeColor=#82b366;" parent="WIyWlLk6GJQsqaUBKTNV-1" vertex="1">
          <mxGeometry x="565" y="940" width="70" height="40" as="geometry" />
        </mxCell>
        <mxCell id="PzolTzz_vceKMygofkCm-22" style="edgeStyle=orthogonalEdgeStyle;rounded=0;orthogonalLoop=1;jettySize=auto;html=1;exitX=0.5;exitY=1;exitDx=0;exitDy=0;" parent="WIyWlLk6GJQsqaUBKTNV-1" source="PzolTzz_vceKMygofkCm-21" target="PzolTzz_vceKMygofkCm-21" edge="1">
          <mxGeometry relative="1" as="geometry" />
        </mxCell>
        <mxCell id="PzolTzz_vceKMygofkCm-23" value="ORDEN DE COMPRA" style="rounded=1;whiteSpace=wrap;html=1;fontSize=12;glass=0;strokeWidth=1;shadow=0;fillColor=#ffe6cc;strokeColor=#d79b00;" parent="WIyWlLk6GJQsqaUBKTNV-1" vertex="1">
          <mxGeometry x="495" y="730" width="120" height="40" as="geometry" />
        </mxCell>
        <mxCell id="PzolTzz_vceKMygofkCm-24" value="id&amp;nbsp;&lt;div&gt;proveedor&lt;/div&gt;" style="ellipse;whiteSpace=wrap;html=1;fillColor=#d5e8d4;strokeColor=#82b366;" parent="WIyWlLk6GJQsqaUBKTNV-1" vertex="1">
          <mxGeometry x="565" y="900" width="70" height="40" as="geometry" />
        </mxCell>
        <mxCell id="PzolTzz_vceKMygofkCm-25" value="precio unitario" style="ellipse;whiteSpace=wrap;html=1;" parent="WIyWlLk6GJQsqaUBKTNV-1" vertex="1">
          <mxGeometry x="565" y="815" width="70" height="40" as="geometry" />
        </mxCell>
        <mxCell id="PzolTzz_vceKMygofkCm-26" value="cantidad" style="ellipse;whiteSpace=wrap;html=1;" parent="WIyWlLk6GJQsqaUBKTNV-1" vertex="1">
          <mxGeometry x="490" y="815" width="70" height="40" as="geometry" />
        </mxCell>
        <mxCell id="PzolTzz_vceKMygofkCm-30" value="id categoria" style="ellipse;whiteSpace=wrap;html=1;fillColor=#d5e8d4;strokeColor=#82b366;" parent="WIyWlLk6GJQsqaUBKTNV-1" vertex="1">
          <mxGeometry x="920" y="800" width="70" height="40" as="geometry" />
        </mxCell>
        <mxCell id="PzolTzz_vceKMygofkCm-101" style="edgeStyle=orthogonalEdgeStyle;rounded=0;orthogonalLoop=1;jettySize=auto;html=1;exitX=0;exitY=0.5;exitDx=0;exitDy=0;entryX=1;entryY=0.5;entryDx=0;entryDy=0;dashed=1;" parent="WIyWlLk6GJQsqaUBKTNV-1" source="PzolTzz_vceKMygofkCm-31" target="PzolTzz_vceKMygofkCm-21" edge="1">
          <mxGeometry relative="1" as="geometry" />
        </mxCell>
        <mxCell id="PzolTzz_vceKMygofkCm-31" value="id&lt;div&gt;articulo&lt;/div&gt;" style="ellipse;whiteSpace=wrap;html=1;fillColor=#dae8fc;strokeColor=#6c8ebf;" parent="WIyWlLk6GJQsqaUBKTNV-1" vertex="1">
          <mxGeometry x="890" y="920" width="70" height="40" as="geometry" />
        </mxCell>
        <mxCell id="PzolTzz_vceKMygofkCm-33" value="unidad&amp;nbsp;&lt;div&gt;de medida&lt;/div&gt;" style="ellipse;whiteSpace=wrap;html=1;" parent="WIyWlLk6GJQsqaUBKTNV-1" vertex="1">
          <mxGeometry x="850" y="880" width="70" height="40" as="geometry" />
        </mxCell>
        <mxCell id="PzolTzz_vceKMygofkCm-34" value="nombre" style="ellipse;whiteSpace=wrap;html=1;" parent="WIyWlLk6GJQsqaUBKTNV-1" vertex="1">
          <mxGeometry x="850" y="840" width="70" height="40" as="geometry" />
        </mxCell>
        <mxCell id="PzolTzz_vceKMygofkCm-35" value="color" style="ellipse;whiteSpace=wrap;html=1;" parent="WIyWlLk6GJQsqaUBKTNV-1" vertex="1">
          <mxGeometry x="920" y="880" width="70" height="40" as="geometry" />
        </mxCell>
        <mxCell id="PzolTzz_vceKMygofkCm-37" style="edgeStyle=orthogonalEdgeStyle;rounded=0;orthogonalLoop=1;jettySize=auto;html=1;exitX=0.5;exitY=1;exitDx=0;exitDy=0;" parent="WIyWlLk6GJQsqaUBKTNV-1" edge="1">
          <mxGeometry relative="1" as="geometry">
            <mxPoint x="955" y="880" as="sourcePoint" />
            <mxPoint x="955" y="880" as="targetPoint" />
          </mxGeometry>
        </mxCell>
        <mxCell id="2TdhiZZe4eSGj6O0BxJE-13" style="edgeStyle=orthogonalEdgeStyle;rounded=0;orthogonalLoop=1;jettySize=auto;html=1;exitX=1;exitY=0.25;exitDx=0;exitDy=0;entryX=0.75;entryY=0;entryDx=0;entryDy=0;endArrow=none;endFill=0;" parent="WIyWlLk6GJQsqaUBKTNV-1" source="PzolTzz_vceKMygofkCm-38" target="PzolTzz_vceKMygofkCm-46" edge="1">
          <mxGeometry relative="1" as="geometry" />
        </mxCell>
        <mxCell id="PzolTzz_vceKMygofkCm-38" value="ARTICULOS" style="rounded=1;whiteSpace=wrap;html=1;fontSize=12;glass=0;strokeWidth=1;shadow=0;fillColor=#ffe6cc;strokeColor=#d79b00;" parent="WIyWlLk6GJQsqaUBKTNV-1" vertex="1">
          <mxGeometry x="865" y="760" width="120" height="40" as="geometry" />
        </mxCell>
        <mxCell id="PzolTzz_vceKMygofkCm-39" value="descripcion&lt;div&gt;adicional&lt;/div&gt;" style="ellipse;whiteSpace=wrap;html=1;" parent="WIyWlLk6GJQsqaUBKTNV-1" vertex="1">
          <mxGeometry x="920" y="840" width="70" height="40" as="geometry" />
        </mxCell>
        <mxCell id="PzolTzz_vceKMygofkCm-42" style="edgeStyle=orthogonalEdgeStyle;rounded=0;orthogonalLoop=1;jettySize=auto;html=1;exitX=0.5;exitY=1;exitDx=0;exitDy=0;" parent="WIyWlLk6GJQsqaUBKTNV-1" edge="1">
          <mxGeometry relative="1" as="geometry">
            <mxPoint x="840" y="850" as="sourcePoint" />
            <mxPoint x="840" y="850" as="targetPoint" />
          </mxGeometry>
        </mxCell>
        <mxCell id="PzolTzz_vceKMygofkCm-44" value="nombre" style="ellipse;whiteSpace=wrap;html=1;" parent="WIyWlLk6GJQsqaUBKTNV-1" vertex="1">
          <mxGeometry x="1085" y="890" width="70" height="40" as="geometry" />
        </mxCell>
        <mxCell id="PzolTzz_vceKMygofkCm-102" style="edgeStyle=orthogonalEdgeStyle;rounded=0;orthogonalLoop=1;jettySize=auto;html=1;exitX=0;exitY=0.5;exitDx=0;exitDy=0;entryX=1;entryY=0.5;entryDx=0;entryDy=0;dashed=1;" parent="WIyWlLk6GJQsqaUBKTNV-1" source="PzolTzz_vceKMygofkCm-45" target="PzolTzz_vceKMygofkCm-30" edge="1">
          <mxGeometry relative="1" as="geometry" />
        </mxCell>
        <mxCell id="PzolTzz_vceKMygofkCm-45" value="id categoria" style="ellipse;whiteSpace=wrap;html=1;fillColor=#dae8fc;strokeColor=#6c8ebf;" parent="WIyWlLk6GJQsqaUBKTNV-1" vertex="1">
          <mxGeometry x="1050" y="850" width="70" height="40" as="geometry" />
        </mxCell>
        <mxCell id="PzolTzz_vceKMygofkCm-46" value="CATEGORIA&lt;div&gt;ARTICULOS&lt;/div&gt;" style="rounded=1;whiteSpace=wrap;html=1;fontSize=12;glass=0;strokeWidth=1;shadow=0;fillColor=#ffe6cc;strokeColor=#d79b00;" parent="WIyWlLk6GJQsqaUBKTNV-1" vertex="1">
          <mxGeometry x="1060" y="800" width="120" height="40" as="geometry" />
        </mxCell>
        <mxCell id="PzolTzz_vceKMygofkCm-47" style="edgeStyle=orthogonalEdgeStyle;rounded=0;orthogonalLoop=1;jettySize=auto;html=1;exitX=0.5;exitY=1;exitDx=0;exitDy=0;" parent="WIyWlLk6GJQsqaUBKTNV-1" edge="1">
          <mxGeometry relative="1" as="geometry">
            <mxPoint x="1010" y="719" as="sourcePoint" />
            <mxPoint x="1010" y="719" as="targetPoint" />
          </mxGeometry>
        </mxCell>
        <mxCell id="PzolTzz_vceKMygofkCm-51" value="seña" style="ellipse;whiteSpace=wrap;html=1;" parent="WIyWlLk6GJQsqaUBKTNV-1" vertex="1">
          <mxGeometry x="125" y="50" width="70" height="40" as="geometry" />
        </mxCell>
        <mxCell id="PzolTzz_vceKMygofkCm-52" value="nombre" style="ellipse;whiteSpace=wrap;html=1;" parent="WIyWlLk6GJQsqaUBKTNV-1" vertex="1">
          <mxGeometry x="115" y="1040" width="70" height="40" as="geometry" />
        </mxCell>
        <mxCell id="PzolTzz_vceKMygofkCm-71" style="edgeStyle=orthogonalEdgeStyle;rounded=0;orthogonalLoop=1;jettySize=auto;html=1;exitX=0;exitY=0.5;exitDx=0;exitDy=0;entryX=0;entryY=0.5;entryDx=0;entryDy=0;dashed=1;" parent="WIyWlLk6GJQsqaUBKTNV-1" source="PzolTzz_vceKMygofkCm-53" target="YpnEVgcEmkKLJ1bC4rOm-46" edge="1">
          <mxGeometry relative="1" as="geometry">
            <Array as="points">
              <mxPoint x="40" y="1060" />
              <mxPoint x="40" y="500" />
            </Array>
          </mxGeometry>
        </mxCell>
        <mxCell id="PzolTzz_vceKMygofkCm-84" style="edgeStyle=orthogonalEdgeStyle;rounded=0;orthogonalLoop=1;jettySize=auto;html=1;exitX=0;exitY=0;exitDx=0;exitDy=0;entryX=0;entryY=0.5;entryDx=0;entryDy=0;dashed=1;" parent="WIyWlLk6GJQsqaUBKTNV-1" source="PzolTzz_vceKMygofkCm-53" target="PzolTzz_vceKMygofkCm-80" edge="1">
          <mxGeometry relative="1" as="geometry" />
        </mxCell>
        <mxCell id="PzolTzz_vceKMygofkCm-53" value="id modelo" style="ellipse;whiteSpace=wrap;html=1;fillColor=#dae8fc;strokeColor=#6c8ebf;" parent="WIyWlLk6GJQsqaUBKTNV-1" vertex="1">
          <mxGeometry x="45" y="1040" width="70" height="40" as="geometry" />
        </mxCell>
        <mxCell id="PzolTzz_vceKMygofkCm-54" value="MODELOS" style="rounded=1;whiteSpace=wrap;html=1;fontSize=12;glass=0;strokeWidth=1;shadow=0;fillColor=#ffe6cc;strokeColor=#d79b00;" parent="WIyWlLk6GJQsqaUBKTNV-1" vertex="1">
          <mxGeometry x="60" y="1000" width="120" height="40" as="geometry" />
        </mxCell>
        <mxCell id="PzolTzz_vceKMygofkCm-56" value="nombre" style="ellipse;whiteSpace=wrap;html=1;" parent="WIyWlLk6GJQsqaUBKTNV-1" vertex="1">
          <mxGeometry x="300" y="990" width="70" height="40" as="geometry" />
        </mxCell>
        <mxCell id="2TdhiZZe4eSGj6O0BxJE-34" style="edgeStyle=orthogonalEdgeStyle;rounded=0;orthogonalLoop=1;jettySize=auto;html=1;exitX=0.5;exitY=0;exitDx=0;exitDy=0;entryX=0.5;entryY=1;entryDx=0;entryDy=0;dashed=1;" parent="WIyWlLk6GJQsqaUBKTNV-1" source="PzolTzz_vceKMygofkCm-57" target="PzolTzz_vceKMygofkCm-67" edge="1">
          <mxGeometry relative="1" as="geometry" />
        </mxCell>
        <mxCell id="PzolTzz_vceKMygofkCm-57" value="id categoria" style="ellipse;whiteSpace=wrap;html=1;fillColor=#dae8fc;strokeColor=#6c8ebf;" parent="WIyWlLk6GJQsqaUBKTNV-1" vertex="1">
          <mxGeometry x="230" y="980" width="70" height="40" as="geometry" />
        </mxCell>
        <mxCell id="PzolTzz_vceKMygofkCm-58" value="CATEGORIA&lt;div&gt;PRODUCTOS&lt;/div&gt;" style="rounded=1;whiteSpace=wrap;html=1;fontSize=12;glass=0;strokeWidth=1;shadow=0;fillColor=#ffe6cc;strokeColor=#d79b00;" parent="WIyWlLk6GJQsqaUBKTNV-1" vertex="1">
          <mxGeometry x="250" y="1030" width="120" height="40" as="geometry" />
        </mxCell>
        <mxCell id="PzolTzz_vceKMygofkCm-70" style="edgeStyle=orthogonalEdgeStyle;rounded=0;orthogonalLoop=1;jettySize=auto;html=1;exitX=0;exitY=0.5;exitDx=0;exitDy=0;entryX=0;entryY=0.5;entryDx=0;entryDy=0;dashed=1;" parent="WIyWlLk6GJQsqaUBKTNV-1" source="PzolTzz_vceKMygofkCm-60" target="YpnEVgcEmkKLJ1bC4rOm-42" edge="1">
          <mxGeometry relative="1" as="geometry" />
        </mxCell>
        <mxCell id="PzolTzz_vceKMygofkCm-83" style="edgeStyle=orthogonalEdgeStyle;rounded=0;orthogonalLoop=1;jettySize=auto;html=1;exitX=0;exitY=1;exitDx=0;exitDy=0;entryX=0;entryY=0.5;entryDx=0;entryDy=0;dashed=1;" parent="WIyWlLk6GJQsqaUBKTNV-1" source="PzolTzz_vceKMygofkCm-60" target="PzolTzz_vceKMygofkCm-75" edge="1">
          <mxGeometry relative="1" as="geometry">
            <Array as="points">
              <mxPoint x="60" y="674" />
              <mxPoint x="60" y="840" />
            </Array>
          </mxGeometry>
        </mxCell>
        <mxCell id="PzolTzz_vceKMygofkCm-60" value="id&lt;div&gt;producto&lt;/div&gt;" style="ellipse;whiteSpace=wrap;html=1;fillColor=#dae8fc;strokeColor=#6c8ebf;" parent="WIyWlLk6GJQsqaUBKTNV-1" vertex="1">
          <mxGeometry x="67.5" y="640" width="70" height="40" as="geometry" />
        </mxCell>
        <mxCell id="PzolTzz_vceKMygofkCm-62" value="nombre" style="ellipse;whiteSpace=wrap;html=1;" parent="WIyWlLk6GJQsqaUBKTNV-1" vertex="1">
          <mxGeometry x="125" y="660" width="70" height="40" as="geometry" />
        </mxCell>
        <mxCell id="PzolTzz_vceKMygofkCm-65" style="edgeStyle=orthogonalEdgeStyle;rounded=0;orthogonalLoop=1;jettySize=auto;html=1;exitX=0.5;exitY=1;exitDx=0;exitDy=0;" parent="WIyWlLk6GJQsqaUBKTNV-1" edge="1">
          <mxGeometry relative="1" as="geometry">
            <mxPoint x="185" y="800" as="sourcePoint" />
            <mxPoint x="185" y="800" as="targetPoint" />
          </mxGeometry>
        </mxCell>
        <mxCell id="PzolTzz_vceKMygofkCm-113" style="edgeStyle=orthogonalEdgeStyle;rounded=0;orthogonalLoop=1;jettySize=auto;html=1;exitX=1;exitY=0.75;exitDx=0;exitDy=0;entryX=0;entryY=0.75;entryDx=0;entryDy=0;endArrow=none;endFill=0;" parent="WIyWlLk6GJQsqaUBKTNV-1" source="PzolTzz_vceKMygofkCm-109" target="PzolTzz_vceKMygofkCm-58" edge="1">
          <mxGeometry relative="1" as="geometry" />
        </mxCell>
        <mxCell id="2TdhiZZe4eSGj6O0BxJE-20" style="edgeStyle=orthogonalEdgeStyle;rounded=0;orthogonalLoop=1;jettySize=auto;html=1;exitX=1;exitY=1;exitDx=0;exitDy=0;entryX=0;entryY=0.5;entryDx=0;entryDy=0;endArrow=none;endFill=0;" parent="WIyWlLk6GJQsqaUBKTNV-1" source="PzolTzz_vceKMygofkCm-66" target="PzolTzz_vceKMygofkCm-109" edge="1">
          <mxGeometry relative="1" as="geometry" />
        </mxCell>
        <mxCell id="PzolTzz_vceKMygofkCm-66" value="PRODUCTOS" style="rounded=1;whiteSpace=wrap;html=1;fontSize=12;glass=0;strokeWidth=1;shadow=0;fillColor=#ffe6cc;strokeColor=#d79b00;" parent="WIyWlLk6GJQsqaUBKTNV-1" vertex="1">
          <mxGeometry x="150" y="620" width="120" height="40" as="geometry" />
        </mxCell>
        <mxCell id="PzolTzz_vceKMygofkCm-67" value="id&lt;div&gt;categoria&lt;/div&gt;" style="ellipse;whiteSpace=wrap;html=1;fillColor=#d5e8d4;strokeColor=#82b366;" parent="WIyWlLk6GJQsqaUBKTNV-1" vertex="1">
          <mxGeometry x="195" y="660" width="70" height="40" as="geometry" />
        </mxCell>
        <mxCell id="PzolTzz_vceKMygofkCm-68" style="edgeStyle=orthogonalEdgeStyle;rounded=0;orthogonalLoop=1;jettySize=auto;html=1;exitX=0.5;exitY=1;exitDx=0;exitDy=0;" parent="WIyWlLk6GJQsqaUBKTNV-1" edge="1">
          <mxGeometry relative="1" as="geometry">
            <mxPoint x="70" y="760" as="sourcePoint" />
            <mxPoint x="70" y="760" as="targetPoint" />
          </mxGeometry>
        </mxCell>
        <mxCell id="PzolTzz_vceKMygofkCm-72" value="medidas" style="ellipse;whiteSpace=wrap;html=1;" parent="WIyWlLk6GJQsqaUBKTNV-1" vertex="1">
          <mxGeometry x="155" y="780" width="70" height="40" as="geometry" />
        </mxCell>
        <mxCell id="PzolTzz_vceKMygofkCm-73" value="id produc_&lt;div&gt;modelo&lt;/div&gt;" style="ellipse;whiteSpace=wrap;html=1;fillColor=#dae8fc;strokeColor=#6c8ebf;" parent="WIyWlLk6GJQsqaUBKTNV-1" vertex="1">
          <mxGeometry x="85" y="780" width="70" height="40" as="geometry" />
        </mxCell>
        <mxCell id="PzolTzz_vceKMygofkCm-74" value="precio de&lt;div&gt;lista&lt;/div&gt;" style="ellipse;whiteSpace=wrap;html=1;" parent="WIyWlLk6GJQsqaUBKTNV-1" vertex="1">
          <mxGeometry x="155" y="860" width="70" height="40" as="geometry" />
        </mxCell>
        <mxCell id="PzolTzz_vceKMygofkCm-75" value="id&amp;nbsp;&lt;div&gt;producto&lt;/div&gt;" style="ellipse;whiteSpace=wrap;html=1;fillColor=#d5e8d4;strokeColor=#82b366;" parent="WIyWlLk6GJQsqaUBKTNV-1" vertex="1">
          <mxGeometry x="80" y="820" width="70" height="40" as="geometry" />
        </mxCell>
        <mxCell id="PzolTzz_vceKMygofkCm-76" value="contado" style="ellipse;whiteSpace=wrap;html=1;" parent="WIyWlLk6GJQsqaUBKTNV-1" vertex="1">
          <mxGeometry x="155" y="900" width="70" height="40" as="geometry" />
        </mxCell>
        <mxCell id="PzolTzz_vceKMygofkCm-77" value="metros&lt;div&gt;tela&lt;/div&gt;" style="ellipse;whiteSpace=wrap;html=1;" parent="WIyWlLk6GJQsqaUBKTNV-1" vertex="1">
          <mxGeometry x="155" y="820" width="70" height="40" as="geometry" />
        </mxCell>
        <mxCell id="PzolTzz_vceKMygofkCm-78" style="edgeStyle=orthogonalEdgeStyle;rounded=0;orthogonalLoop=1;jettySize=auto;html=1;exitX=0.5;exitY=1;exitDx=0;exitDy=0;" parent="WIyWlLk6GJQsqaUBKTNV-1" source="PzolTzz_vceKMygofkCm-77" target="PzolTzz_vceKMygofkCm-77" edge="1">
          <mxGeometry relative="1" as="geometry" />
        </mxCell>
        <mxCell id="PzolTzz_vceKMygofkCm-79" value="tabla intermedia&lt;div&gt;producto - modelo&lt;/div&gt;" style="rounded=1;whiteSpace=wrap;html=1;fontSize=12;glass=0;strokeWidth=1;shadow=0;fillColor=#ffe6cc;strokeColor=#d79b00;" parent="WIyWlLk6GJQsqaUBKTNV-1" vertex="1">
          <mxGeometry x="80" y="740" width="120" height="40" as="geometry" />
        </mxCell>
        <mxCell id="PzolTzz_vceKMygofkCm-80" value="id&lt;div&gt;modelo&lt;/div&gt;" style="ellipse;whiteSpace=wrap;html=1;fillColor=#d5e8d4;strokeColor=#82b366;" parent="WIyWlLk6GJQsqaUBKTNV-1" vertex="1">
          <mxGeometry x="80" y="860" width="70" height="40" as="geometry" />
        </mxCell>
        <mxCell id="PzolTzz_vceKMygofkCm-81" style="edgeStyle=orthogonalEdgeStyle;rounded=0;orthogonalLoop=1;jettySize=auto;html=1;exitX=0.5;exitY=1;exitDx=0;exitDy=0;" parent="WIyWlLk6GJQsqaUBKTNV-1" edge="1">
          <mxGeometry relative="1" as="geometry">
            <mxPoint x="95" y="840" as="sourcePoint" />
            <mxPoint x="95" y="840" as="targetPoint" />
          </mxGeometry>
        </mxCell>
        <mxCell id="PzolTzz_vceKMygofkCm-82" value="pago anticipado" style="ellipse;whiteSpace=wrap;html=1;" parent="WIyWlLk6GJQsqaUBKTNV-1" vertex="1">
          <mxGeometry x="80" y="900" width="70" height="40" as="geometry" />
        </mxCell>
        <mxCell id="PzolTzz_vceKMygofkCm-90" value="detalla" style="rhombus;whiteSpace=wrap;html=1;shadow=0;fontFamily=Helvetica;fontSize=12;align=center;strokeWidth=1;spacing=6;spacingTop=-4;fillColor=#f8cecc;strokeColor=#b85450;" parent="WIyWlLk6GJQsqaUBKTNV-1" vertex="1">
          <mxGeometry x="230" y="440" width="60" height="60" as="geometry" />
        </mxCell>
        <mxCell id="PzolTzz_vceKMygofkCm-92" value="se pide" style="rhombus;whiteSpace=wrap;html=1;shadow=0;fontFamily=Helvetica;fontSize=12;align=center;strokeWidth=1;spacing=6;spacingTop=-4;fillColor=#f8cecc;strokeColor=#b85450;" parent="WIyWlLk6GJQsqaUBKTNV-1" vertex="1">
          <mxGeometry x="520" y="630" width="70" height="40" as="geometry" />
        </mxCell>
        <mxCell id="PzolTzz_vceKMygofkCm-97" style="edgeStyle=orthogonalEdgeStyle;rounded=0;orthogonalLoop=1;jettySize=auto;html=1;exitX=0.5;exitY=1;exitDx=0;exitDy=0;entryX=0.563;entryY=0.045;entryDx=0;entryDy=0;entryPerimeter=0;endArrow=none;endFill=0;" parent="WIyWlLk6GJQsqaUBKTNV-1" source="PzolTzz_vceKMygofkCm-92" target="PzolTzz_vceKMygofkCm-23" edge="1">
          <mxGeometry relative="1" as="geometry" />
        </mxCell>
        <mxCell id="PzolTzz_vceKMygofkCm-105" style="edgeStyle=orthogonalEdgeStyle;rounded=0;orthogonalLoop=1;jettySize=auto;html=1;exitX=1;exitY=0.5;exitDx=0;exitDy=0;entryX=0;entryY=0.75;entryDx=0;entryDy=0;endArrow=none;endFill=0;" parent="WIyWlLk6GJQsqaUBKTNV-1" source="PzolTzz_vceKMygofkCm-104" target="PzolTzz_vceKMygofkCm-23" edge="1">
          <mxGeometry relative="1" as="geometry" />
        </mxCell>
        <mxCell id="PzolTzz_vceKMygofkCm-107" style="edgeStyle=orthogonalEdgeStyle;rounded=0;orthogonalLoop=1;jettySize=auto;html=1;exitX=0.5;exitY=1;exitDx=0;exitDy=0;" parent="WIyWlLk6GJQsqaUBKTNV-1" source="PzolTzz_vceKMygofkCm-62" target="PzolTzz_vceKMygofkCm-62" edge="1">
          <mxGeometry relative="1" as="geometry" />
        </mxCell>
        <mxCell id="PzolTzz_vceKMygofkCm-104" value="genera" style="rhombus;whiteSpace=wrap;html=1;shadow=0;fontFamily=Helvetica;fontSize=12;align=center;strokeWidth=1;spacing=6;spacingTop=-4;fillColor=#f8cecc;strokeColor=#b85450;" parent="WIyWlLk6GJQsqaUBKTNV-1" vertex="1">
          <mxGeometry x="275" y="740" width="70" height="60" as="geometry" />
        </mxCell>
        <mxCell id="PzolTzz_vceKMygofkCm-109" value="pertenece" style="rhombus;whiteSpace=wrap;html=1;shadow=0;fontFamily=Helvetica;fontSize=12;align=center;strokeWidth=1;spacing=6;spacingTop=-4;fillColor=#f8cecc;strokeColor=#b85450;" parent="WIyWlLk6GJQsqaUBKTNV-1" vertex="1">
          <mxGeometry x="270" y="845" width="65" height="50" as="geometry" />
        </mxCell>
        <mxCell id="PzolTzz_vceKMygofkCm-115" value="PRIMARY&lt;div&gt;KEY&lt;/div&gt;" style="ellipse;whiteSpace=wrap;html=1;fillColor=#dae8fc;strokeColor=#6c8ebf;" parent="WIyWlLk6GJQsqaUBKTNV-1" vertex="1">
          <mxGeometry x="667.5" y="10" width="70" height="40" as="geometry" />
        </mxCell>
        <mxCell id="PzolTzz_vceKMygofkCm-117" value="FOREING&lt;div&gt;KEY&lt;/div&gt;" style="ellipse;whiteSpace=wrap;html=1;fillColor=#d5e8d4;strokeColor=#82b366;" parent="WIyWlLk6GJQsqaUBKTNV-1" vertex="1">
          <mxGeometry x="750" y="10" width="70" height="40" as="geometry" />
        </mxCell>
        <mxCell id="2TdhiZZe4eSGj6O0BxJE-5" value="id proveedor" style="ellipse;whiteSpace=wrap;html=1;fillColor=#d5e8d4;strokeColor=#82b366;" parent="WIyWlLk6GJQsqaUBKTNV-1" vertex="1">
          <mxGeometry x="850" y="800" width="70" height="40" as="geometry" />
        </mxCell>
        <mxCell id="2TdhiZZe4eSGj6O0BxJE-8" value="" style="edgeStyle=orthogonalEdgeStyle;rounded=0;orthogonalLoop=1;jettySize=auto;html=1;exitX=1;exitY=0.5;exitDx=0;exitDy=0;endArrow=none;endFill=0;" parent="WIyWlLk6GJQsqaUBKTNV-1" source="PzolTzz_vceKMygofkCm-8" target="2TdhiZZe4eSGj6O0BxJE-7" edge="1">
          <mxGeometry relative="1" as="geometry">
            <mxPoint x="803" y="650" as="sourcePoint" />
            <mxPoint x="925" y="760" as="targetPoint" />
          </mxGeometry>
        </mxCell>
        <mxCell id="2TdhiZZe4eSGj6O0BxJE-7" value="entrega" style="rhombus;whiteSpace=wrap;html=1;shadow=0;fontFamily=Helvetica;fontSize=12;align=center;strokeWidth=1;spacing=6;spacingTop=-4;fillColor=#f8cecc;strokeColor=#b85450;" parent="WIyWlLk6GJQsqaUBKTNV-1" vertex="1">
          <mxGeometry x="890" y="660" width="70" height="40" as="geometry" />
        </mxCell>
        <mxCell id="2TdhiZZe4eSGj6O0BxJE-9" value="pertenece" style="rhombus;whiteSpace=wrap;html=1;shadow=0;fontFamily=Helvetica;fontSize=12;align=center;strokeWidth=1;spacing=6;spacingTop=-4;fillColor=#f8cecc;strokeColor=#b85450;" parent="WIyWlLk6GJQsqaUBKTNV-1" vertex="1">
          <mxGeometry x="1040" y="750" width="70" height="40" as="geometry" />
        </mxCell>
        <mxCell id="2TdhiZZe4eSGj6O0BxJE-16" style="edgeStyle=orthogonalEdgeStyle;rounded=0;orthogonalLoop=1;jettySize=auto;html=1;exitX=1;exitY=1;exitDx=0;exitDy=0;entryX=0.54;entryY=0.117;entryDx=0;entryDy=0;entryPerimeter=0;endArrow=none;endFill=0;" parent="WIyWlLk6GJQsqaUBKTNV-1" source="WIyWlLk6GJQsqaUBKTNV-12" target="PzolTzz_vceKMygofkCm-90" edge="1">
          <mxGeometry relative="1" as="geometry">
            <Array as="points">
              <mxPoint x="220" y="350" />
              <mxPoint x="240" y="350" />
              <mxPoint x="240" y="390" />
              <mxPoint x="262" y="390" />
            </Array>
          </mxGeometry>
        </mxCell>
        <mxCell id="2TdhiZZe4eSGj6O0BxJE-17" style="edgeStyle=orthogonalEdgeStyle;rounded=0;orthogonalLoop=1;jettySize=auto;html=1;exitX=0.5;exitY=1;exitDx=0;exitDy=0;entryX=0.923;entryY=0.055;entryDx=0;entryDy=0;entryPerimeter=0;endArrow=none;endFill=0;" parent="WIyWlLk6GJQsqaUBKTNV-1" source="PzolTzz_vceKMygofkCm-90" target="PzolTzz_vceKMygofkCm-66" edge="1">
          <mxGeometry relative="1" as="geometry" />
        </mxCell>
        <mxCell id="2TdhiZZe4eSGj6O0BxJE-19" value="provincia" style="ellipse;whiteSpace=wrap;html=1;" parent="WIyWlLk6GJQsqaUBKTNV-1" vertex="1">
          <mxGeometry x="675" y="790" width="70" height="40" as="geometry" />
        </mxCell>
        <mxCell id="2TdhiZZe4eSGj6O0BxJE-24" style="edgeStyle=orthogonalEdgeStyle;rounded=0;orthogonalLoop=1;jettySize=auto;html=1;exitX=1;exitY=0.5;exitDx=0;exitDy=0;entryX=0.029;entryY=0.755;entryDx=0;entryDy=0;entryPerimeter=0;dashed=1;" parent="WIyWlLk6GJQsqaUBKTNV-1" source="PzolTzz_vceKMygofkCm-1" target="2TdhiZZe4eSGj6O0BxJE-5" edge="1">
          <mxGeometry relative="1" as="geometry" />
        </mxCell>
        <mxCell id="2TdhiZZe4eSGj6O0BxJE-29" value="id sector" style="ellipse;whiteSpace=wrap;html=1;fillColor=#d5e8d4;strokeColor=#82b366;" parent="WIyWlLk6GJQsqaUBKTNV-1" vertex="1">
          <mxGeometry x="1120" y="850" width="70" height="40" as="geometry" />
        </mxCell>
      </root>
    </mxGraphModel>
  </diagram>
</mxfile>
